<?xml version="1.0" standalone="no"?><!DOCTYPE svg PUBLIC "-//W3C//DTD SVG 1.1//EN" "http://www.w3.org/Graphics/SVG/1.1/DTD/svg11.dtd"><svg t="1617707853284" class="icon" viewBox="0 0 1024 1024" version="1.1" xmlns="http://www.w3.org/2000/svg" p-id="6345" xmlns:xlink="http://www.w3.org/1999/xlink" width="200" height="200"><defs><style type="text/css"></style></defs><path d="M393.309091 69.818182H162.909091C111.709091 69.818182 69.818182 111.709091 69.818182 162.909091v230.4c0 51.2 41.890909 93.090909 93.090909 93.090909h230.4c51.2 0 93.090909-41.890909 93.090909-93.090909V162.909091c0-51.2-41.890909-93.090909-93.090909-93.090909z m46.545454 321.163636c0 25.6-20.945455 46.545455-46.545454 46.545455H162.909091c-25.6 0-46.545455-20.945455-46.545455-46.545455V162.909091c0-25.6 20.945455-46.545455 46.545455-46.545455h230.4c25.6 0 46.545455 20.945455 46.545454 46.545455v228.072727zM861.090909 69.818182h-230.4c-51.2 0-93.090909 41.890909-93.090909 93.090909v230.4c0 51.2 41.890909 93.090909 93.090909 93.090909H861.090909c51.2 0 93.090909-41.890909 93.090909-93.090909V162.909091c0-51.2-41.890909-93.090909-93.090909-93.090909z m46.545455 321.163636c0 25.6-20.945455 46.545455-46.545455 46.545455h-230.4c-25.6 0-46.545455-20.945455-46.545454-46.545455V162.909091c0-25.6 20.945455-46.545455 46.545454-46.545455H861.090909c25.6 0 46.545455 20.945455 46.545455 46.545455v228.072727zM393.309091 539.927273H162.909091c-51.2 0-93.090909 41.890909-93.090909 93.090909V861.090909c0 51.2 41.890909 93.090909 93.090909 93.090909h230.4c51.2 0 93.090909-41.890909 93.090909-93.090909v-230.4c0-48.872727-41.890909-90.763636-93.090909-90.763636z m46.545454 321.163636c0 25.6-20.945455 46.545455-46.545454 46.545455H162.909091c-25.6 0-46.545455-20.945455-46.545455-46.545455v-230.4c0-25.6 20.945455-46.545455 46.545455-46.545454h230.4c25.6 0 46.545455 20.945455 46.545454 46.545454V861.090909zM861.090909 539.927273h-230.4c-51.2 0-93.090909 41.890909-93.090909 93.090909V861.090909c0 51.2 41.890909 93.090909 93.090909 93.090909H861.090909c51.2 0 93.090909-41.890909 93.090909-93.090909v-230.4c0-48.872727-41.890909-90.763636-93.090909-90.763636zM907.636364 861.090909c0 25.6-20.945455 46.545455-46.545455 46.545455h-230.4c-25.6 0-46.545455-20.945455-46.545454-46.545455v-230.4c0-25.6 20.945455-46.545455 46.545454-46.545454H861.090909c25.6 0 46.545455 20.945455 46.545455 46.545454V861.090909z" fill="" p-id="6346"></path></svg>