<?xml version="1.0" standalone="no"?><!DOCTYPE svg PUBLIC "-//W3C//DTD SVG 1.1//EN" "http://www.w3.org/Graphics/SVG/1.1/DTD/svg11.dtd"><svg t="1617707197999" class="icon" viewBox="0 0 1024 1024" version="1.1" xmlns="http://www.w3.org/2000/svg" p-id="2067" xmlns:xlink="http://www.w3.org/1999/xlink" width="200" height="200"><defs><style type="text/css"></style></defs><path d="M209.856 540.361v276.034c0 15.094 12.242 27.33 27.344 27.33h128.513V719.373c0-80.753 65.495-146.216 146.287-146.216s146.287 65.463 146.287 146.216v124.352H786.8c15.102 0 27.344-12.236 27.344-27.33V540.36h60.155v276.034c0 48.3-39.175 87.456-87.499 87.456H596.823a86.584 86.584 0 0 0 1.308-15.032V719.373c0-47.546-38.562-86.09-86.131-86.09-47.57 0-86.131 38.544-86.131 86.09v169.446c0 5.128 0.448 10.15 1.308 15.032H237.2c-48.324 0-87.499-39.156-87.499-87.456V540.36h60.155zM595.14 124.533L963.925 493.14l-42.536 42.515-368.786-368.607c-22.425-22.413-58.781-22.413-81.206 0L102.611 535.655 60.075 493.14 428.86 124.533c45.916-45.895 120.362-45.895 166.278 0z" p-id="2068"></path></svg>