<?xml version="1.0" standalone="no"?><!DOCTYPE svg PUBLIC "-//W3C//DTD SVG 1.1//EN" "http://www.w3.org/Graphics/SVG/1.1/DTD/svg11.dtd"><svg t="1617707969613" class="icon" viewBox="0 0 1024 1024" version="1.1" xmlns="http://www.w3.org/2000/svg" p-id="7189" xmlns:xlink="http://www.w3.org/1999/xlink" width="200" height="200"><defs><style type="text/css"></style></defs><path d="M513.2 610.6c-67.6 0-131.1-26.6-178.9-74.9-47.7-48.2-74-112.4-74-180.6 0-68.2 26.3-132.3 74-180.6 47.8-48.3 111.3-74.9 178.9-74.9 67.6 0 131.1 26.6 178.9 74.9 47.7 48.2 74 112.4 74 180.6s-26.3 132.3-74 180.6c-47.8 48.3-111.3 74.9-178.9 74.9z m0-469.9c-116.8 0-211.8 96.2-211.8 214.4s95 214.4 211.8 214.4C630 569.5 725 473.3 725 355.1s-95-214.4-211.8-214.4z" p-id="7190"></path><path d="M121.7 933.6c-1.3 0-2.7-0.1-4.1-0.4-11.1-2.2-18.3-13.1-16.1-24.2 19-94.5 70.2-180.5 144.2-242.3 36.8-30.8 78.2-54.8 122.9-71.3 46.3-17.1 94.9-25.8 144.6-25.8 49.7 0 98.3 8.7 144.5 25.8 44.7 16.5 86 40.5 122.8 71.2 73.9 61.7 125.2 147.6 144.3 242 2.2 11.1-4.9 21.9-16 24.2-11.1 2.3-21.9-4.9-24.2-16-35.9-177.4-192.1-306.2-371.3-306.2-179.4 0-335.6 128.9-371.4 306.5-2 9.7-10.6 16.5-20.2 16.5z" p-id="7191"></path></svg>